<svg width="139" height="25" viewBox="0 0 139 25" fill="none" xmlns="http://www.w3.org/2000/svg">
<path d="M0.612 18.9688V0.768749H3.472L12.494 14.3147V0.768749H15.354V18.9688H12.494L3.472 5.44875V18.9688H0.612ZM23.9706 19.2808C22.6879 19.2808 21.5526 19.0034 20.5646 18.4487C19.5939 17.8767 18.8226 17.0881 18.2506 16.0827C17.6959 15.0774 17.4186 13.9074 17.4186 12.5727C17.4186 11.2381 17.6959 10.0594 18.2506 9.03675C18.8052 7.99675 19.5766 7.19075 20.5646 6.61875C21.5526 6.04675 22.6966 5.76075 23.9966 5.76075C25.2619 5.76075 26.3626 6.03808 27.2986 6.59275C28.2519 7.14742 28.9886 7.89275 29.5086 8.82875C30.0286 9.76475 30.2886 10.8134 30.2886 11.9747C30.2886 12.1481 30.2886 12.3387 30.2886 12.5467C30.2886 12.7374 30.2712 12.9541 30.2366 13.1967H19.5246V11.2727H27.4286C27.3766 10.3021 27.0212 9.53075 26.3626 8.95875C25.7212 8.38675 24.9326 8.10075 23.9966 8.10075C23.3206 8.10075 22.6966 8.25675 22.1246 8.56875C21.5526 8.86342 21.0932 9.30542 20.7466 9.89475C20.3999 10.4667 20.2266 11.2034 20.2266 12.1048V12.8327C20.2266 13.6994 20.3999 14.4447 20.7466 15.0687C21.0932 15.6754 21.5439 16.1347 22.0986 16.4467C22.6706 16.7587 23.2946 16.9147 23.9706 16.9147C24.7332 16.9147 25.3746 16.7414 25.8946 16.3947C26.4146 16.0481 26.7959 15.5801 27.0386 14.9907H29.9246C29.6992 15.8054 29.3092 16.5421 28.7546 17.2007C28.2172 17.8421 27.5412 18.3534 26.7266 18.7347C25.9292 19.0987 25.0106 19.2808 23.9706 19.2808ZM38.4172 19.2808C37.1346 19.2808 35.9819 19.0034 34.9592 18.4487C33.9366 17.8767 33.1219 17.0794 32.5152 16.0567C31.9259 15.0341 31.6312 13.8554 31.6312 12.5207C31.6312 11.1687 31.9259 9.99008 32.5152 8.98475C33.1219 7.96208 33.9366 7.17342 34.9592 6.61875C35.9992 6.04675 37.1519 5.76075 38.4172 5.76075C39.7172 5.76075 40.8699 6.04675 41.8752 6.61875C42.8979 7.17342 43.7039 7.96208 44.2932 8.98475C44.8999 9.99008 45.2032 11.1687 45.2032 12.5207C45.2032 13.8554 44.8999 15.0341 44.2932 16.0567C43.7039 17.0794 42.8979 17.8767 41.8752 18.4487C40.8526 19.0034 39.6999 19.2808 38.4172 19.2808ZM38.3912 16.8107C39.1019 16.8107 39.7432 16.6547 40.3152 16.3427C40.9046 16.0134 41.3726 15.5367 41.7192 14.9127C42.0659 14.2714 42.2392 13.4741 42.2392 12.5207C42.2392 11.5674 42.0659 10.7787 41.7192 10.1547C41.3726 9.51342 40.9046 9.03675 40.3152 8.72475C39.7432 8.39542 39.1192 8.23075 38.4432 8.23075C37.7499 8.23075 37.1086 8.39542 36.5192 8.72475C35.9299 9.03675 35.4619 9.51342 35.1152 10.1547C34.7686 10.7787 34.5952 11.5674 34.5952 12.5207C34.5952 13.4741 34.7686 14.2714 35.1152 14.9127C35.4619 15.5367 35.9212 16.0134 36.4932 16.3427C37.0826 16.6547 37.7152 16.8107 38.3912 16.8107ZM46.9497 18.9688V6.07275H49.8097V8.12675C50.243 7.39875 50.8324 6.82675 51.5777 6.41075C52.323 5.97742 53.1724 5.76075 54.1257 5.76075C55.703 5.76075 56.9337 6.25475 57.8177 7.24275C58.7017 8.21342 59.1437 9.66075 59.1437 11.5847V18.9688H56.2837V11.8707C56.2837 10.6574 56.0324 9.74742 55.5297 9.14075C55.0444 8.51675 54.299 8.20475 53.2937 8.20475C52.2884 8.20475 51.4564 8.56008 50.7977 9.27075C50.139 9.98142 49.8097 10.9954 49.8097 12.3127V18.9688H46.9497ZM61.7524 18.9688V0.768749H68.7984C70.0638 0.768749 71.1211 0.968082 71.9704 1.36675C72.8198 1.76542 73.4611 2.32008 73.8944 3.03075C74.3278 3.72408 74.5444 4.52142 74.5444 5.42275C74.5444 6.34142 74.3451 7.11275 73.9464 7.73675C73.5478 8.36075 73.0191 8.83742 72.3604 9.16675C71.7191 9.49608 71.0258 9.70408 70.2804 9.79075L70.6704 9.50475C71.4851 9.52208 72.2131 9.73875 72.8544 10.1547C73.5131 10.5534 74.0331 11.0907 74.4144 11.7667C74.7958 12.4427 74.9864 13.1881 74.9864 14.0027C74.9864 14.9387 74.7524 15.7881 74.2844 16.5507C73.8338 17.2961 73.1664 17.8854 72.2824 18.3187C71.3984 18.7521 70.3151 18.9688 69.0324 18.9688H61.7524ZM64.6124 16.6287H68.6684C69.7431 16.6287 70.5751 16.3774 71.1644 15.8747C71.7711 15.3547 72.0744 14.6354 72.0744 13.7167C72.0744 12.7981 71.7624 12.0701 71.1384 11.5327C70.5318 10.9954 69.6824 10.7267 68.5904 10.7267H64.6124V16.6287ZM64.6124 8.54275H68.4344C69.4571 8.54275 70.2458 8.30008 70.8004 7.81475C71.3551 7.32942 71.6324 6.66208 71.6324 5.81275C71.6324 4.98075 71.3638 4.32208 70.8264 3.83675C70.2891 3.33408 69.4744 3.08275 68.3824 3.08275H64.6124V8.54275ZM75.8761 24.6888V22.3748H78.5541C78.8141 22.3748 79.0221 22.3401 79.1781 22.2708C79.3514 22.2014 79.5161 22.0541 79.6721 21.8288C79.8454 21.6034 80.0274 21.2481 80.2181 20.7628L81.5181 17.9547L81.3101 19.3068L75.6681 6.07275H78.7881L82.6621 15.5368L86.7441 6.07275H89.7601L82.8181 21.6468C82.5234 22.3228 82.2634 22.8601 82.0381 23.2588C81.8301 23.6574 81.6221 23.9608 81.4141 24.1688C81.2234 24.3768 80.9894 24.5154 80.7121 24.5848C80.4348 24.6541 80.0881 24.6888 79.6721 24.6888H75.8761ZM96.048 18.9688C95.2507 18.9688 94.5747 18.8734 94.02 18.6827C93.4654 18.4921 93.0494 18.1281 92.772 17.5907C92.4947 17.0534 92.356 16.2734 92.356 15.2507V8.49075H90.146V6.07275H92.356V2.77075H95.216V6.07275H98.674V8.49075H95.216V14.8607C95.216 15.3634 95.2594 15.7361 95.346 15.9787C95.45 16.2041 95.6234 16.3514 95.866 16.4207C96.126 16.4901 96.4987 16.5247 96.9841 16.5247H98.5441V18.9688H96.048ZM105.666 19.2808C104.384 19.2808 103.248 19.0034 102.26 18.4487C101.29 17.8767 100.518 17.0881 99.9464 16.0827C99.3918 15.0774 99.1144 13.9074 99.1144 12.5727C99.1144 11.2381 99.3918 10.0594 99.9464 9.03675C100.501 7.99675 101.272 7.19075 102.26 6.61875C103.248 6.04675 104.392 5.76075 105.692 5.76075C106.958 5.76075 108.058 6.03808 108.994 6.59275C109.948 7.14742 110.684 7.89275 111.204 8.82875C111.724 9.76475 111.984 10.8134 111.984 11.9747C111.984 12.1481 111.984 12.3387 111.984 12.5467C111.984 12.7374 111.967 12.9541 111.932 13.1967H101.22V11.2727H109.124C109.072 10.3021 108.717 9.53075 108.058 8.95875C107.417 8.38675 106.628 8.10075 105.692 8.10075C105.016 8.10075 104.392 8.25675 103.82 8.56875C103.248 8.86342 102.789 9.30542 102.442 9.89475C102.096 10.4667 101.922 11.2034 101.922 12.1048V12.8327C101.922 13.6994 102.096 14.4447 102.442 15.0687C102.789 15.6754 103.24 16.1347 103.794 16.4467C104.366 16.7587 104.99 16.9147 105.666 16.9147C106.429 16.9147 107.07 16.7414 107.59 16.3947C108.11 16.0481 108.492 15.5801 108.734 14.9907H111.62C111.395 15.8054 111.005 16.5421 110.45 17.2007C109.913 17.8421 109.237 18.3534 108.422 18.7347C107.625 19.0987 106.706 19.2808 105.666 19.2808Z" fill="#1E1E1E"/>
<path fill-rule="evenodd" clip-rule="evenodd" d="M132.383 1.58876C131.327 1.22789 130.188 1.03125 129 1.03125C123.477 1.03125 119 5.28454 119 10.5312C119 15.778 123.477 20.0312 129 20.0312C134.523 20.0312 139 15.778 139 10.5312C139 9.45461 138.811 8.41981 138.464 7.455C138.385 7.49356 138.304 7.52982 138.222 7.56371C137.676 7.78985 137.091 7.90625 136.5 7.90625C135.909 7.90625 135.324 7.78985 134.778 7.56371C134.232 7.33756 133.736 7.00609 133.318 6.58823C132.9 6.17037 132.569 5.67429 132.343 5.12832C132.116 4.58236 132 3.9972 132 3.40625C132 2.8153 132.116 2.23014 132.343 1.68417C132.356 1.6522 132.369 1.62039 132.383 1.58876Z" fill="#1E1E1E"/>
</svg>
