<?xml version="1.0" encoding="UTF-8" standalone="no"?>
<!DOCTYPE svg PUBLIC "-//W3C//DTD SVG 1.1//EN" "http://www.w3.org/Graphics/SVG/1.1/DTD/svg11.dtd">
<svg width="100%" height="100%" viewBox="0 0 600 106" version="1.1" xmlns="http://www.w3.org/2000/svg" xmlns:xlink="http://www.w3.org/1999/xlink" xml:space="preserve" xmlns:serif="http://www.serif.com/" style="fill-rule:evenodd;clip-rule:evenodd;stroke-linejoin:round;stroke-miterlimit:2;">
    <g transform="matrix(1,0,0,1,0,-0.807001)">
        <g>
            <path d="M148.974,67.862C154.788,67.862 157.145,64.64 157.145,55.29C157.145,47.589 156.045,42.874 150.153,42.874C146.538,42.874 144.494,44.681 142.766,47.825L142.766,66.448C144.967,67.468 147.009,67.862 148.974,67.862ZM131.294,88.135L131.294,50.418C131.294,45.624 131.215,40.595 130.194,35.88L139.151,33.681C139.938,35.644 140.644,37.766 141.115,39.808C143.394,35.958 147.087,33.602 153.06,33.602C163.275,33.602 168.696,39.338 168.696,55.29C168.696,72.891 159.66,76.977 151.016,76.977C147.795,76.977 144.573,76.585 142.294,74.462C142.766,76.742 142.766,79.413 142.766,82.32L142.766,88.135L131.294,88.135Z" style="fill:rgb(110,190,213);fill-rule:nonzero;"/>
            <path d="M197.534,51.282C197.378,45.153 195.098,42.796 190.856,42.796C186.062,42.796 183.548,45.781 183.548,52.303L183.548,53.481L197.534,51.282ZM192.033,76.977C179.382,76.977 172.154,71.634 172.154,55.447C172.154,38.71 179.539,33.602 190.856,33.602C202.012,33.602 208.693,37.845 208.693,58.118L184.018,60.711C184.726,65.74 187.082,67.705 191.876,67.705C196.199,67.705 200.049,66.84 204.056,64.483L207.514,72.419C203.034,75.484 198.084,76.977 192.033,76.977Z" style="fill:rgb(110,190,213);fill-rule:nonzero;"/>
            <path d="M213.094,76.034L213.094,50.418C213.094,45.624 213.016,40.595 211.994,35.88L220.952,33.681C221.895,35.958 222.758,38.551 223.388,40.987C225.508,37.137 228.966,34.23 235.409,33.602L236.904,45.545L235.725,45.545C230.066,45.545 226.846,47.273 224.566,51.675L224.566,76.034L213.094,76.034Z" style="fill:rgb(110,190,213);fill-rule:nonzero;"/>
            <path d="M246.095,76.034L246.095,44.367L240.046,44.367L240.046,35.88L245.938,35.88C245.703,34.466 245.624,33.13 245.624,31.873C245.624,23.701 250.104,18.672 259.297,18.672C261.104,18.672 263.069,18.829 265.269,19.221L264.326,27.865C263.147,27.708 262.204,27.63 261.338,27.63C257.961,27.63 256.547,28.73 256.547,31.873C256.547,32.973 256.704,34.309 257.018,35.88L266.133,35.88L265.113,44.367L257.569,44.367L257.569,76.034L246.095,76.034Z" style="fill:rgb(110,190,213);fill-rule:nonzero;"/>
            <path d="M294.5,55.29C294.5,47.511 293.321,42.796 286.406,42.796C279.492,42.796 278.313,47.511 278.313,55.29C278.313,63.069 279.492,67.784 286.406,67.784C293.321,67.784 294.5,63.069 294.5,55.29ZM266.762,55.29C266.762,40.516 272.34,33.602 286.406,33.602C300.471,33.602 306.051,40.516 306.051,55.29C306.051,70.063 300.471,76.977 286.406,76.977C272.34,76.977 266.762,70.063 266.762,55.29Z" style="fill:rgb(110,190,213);fill-rule:nonzero;"/>
            <path d="M309.872,76.034L309.872,50.418C309.872,45.624 309.793,40.595 308.772,35.88L317.729,33.681C318.673,35.958 319.536,38.551 320.165,40.987C322.286,37.137 325.744,34.23 332.187,33.602L333.681,45.545L332.503,45.545C326.844,45.545 323.623,47.273 321.344,51.675L321.344,76.034L309.872,76.034Z" style="fill:rgb(110,190,213);fill-rule:nonzero;"/>
            <path d="M386.202,76.034L386.202,53.167C386.202,46.095 384.866,42.952 380.543,42.952C376.614,42.952 374.886,44.602 373.156,47.825L373.156,76.034L361.684,76.034L361.684,49.082C361.684,45.389 359.799,42.952 356.027,42.952C352.099,42.952 350.369,44.602 348.641,47.825L348.641,76.034L337.169,76.034L337.169,50.418C337.169,45.624 337.09,40.595 336.068,35.88L345.026,33.681C345.811,35.644 346.519,37.766 346.989,39.808C349.19,35.958 352.648,33.602 358.856,33.602C365.848,33.602 369.542,36.352 371.35,40.124C373.551,35.958 377.164,33.602 383.371,33.602C396.574,33.602 397.674,43.109 397.674,51.596L397.674,76.034L386.202,76.034Z" style="fill:rgb(110,190,213);fill-rule:nonzero;"/>
            <path d="M426.48,58.118C416.581,58.667 413.044,60.397 413.044,63.777C413.044,66.84 414.537,68.098 419.015,68.098C422.945,68.098 424.909,65.975 426.48,62.598L426.48,58.118ZM430.095,76.898C429.31,74.933 428.602,72.813 428.131,70.769C425.852,74.619 422.316,76.977 416.108,76.977C405.658,76.977 401.572,71.948 401.572,64.169C401.572,56.074 406.442,51.753 426.48,50.574C426.166,44.602 423.181,43.109 418.623,43.109C414.694,43.109 410.765,44.131 407.15,45.938L403.692,37.531C408.643,34.701 414.223,33.602 420.431,33.602C431.352,33.602 437.954,40.046 437.954,49.947L437.954,60.162C437.954,64.954 438.032,69.983 439.053,74.698L430.095,76.898Z" style="fill:rgb(110,190,213);fill-rule:nonzero;"/>
            <path d="M469.416,76.034L469.416,53.167C469.416,46.095 468,42.952 463.522,42.952C459.437,42.952 457.628,44.602 455.822,47.825L455.822,76.034L444.349,76.034L444.349,50.418C444.349,45.624 444.271,40.595 443.249,35.88L452.207,33.681C452.993,35.644 453.699,37.766 454.17,39.808C456.449,35.958 459.986,33.602 466.272,33.602C479.788,33.602 480.888,43.109 480.888,51.596L480.888,76.034L469.416,76.034Z" style="fill:rgb(110,190,213);fill-rule:nonzero;"/>
            <path d="M498.724,77.763C491.023,73.441 489.923,64.875 489.923,57.018L489.923,43.031L483.872,43.031L483.872,34.544L489.923,34.544L489.923,22.758L501.395,21.344L501.395,34.544L509.96,34.544L508.939,43.031L501.395,43.031L501.395,57.253C501.395,63.539 502.574,68.176 506.424,72.419L498.724,77.763Z" style="fill:rgb(110,190,213);fill-rule:nonzero;"/>
            <path d="M525.379,76.062C524.576,73.555 524.425,70.544 524.425,67.136L524.425,40.554L528.137,40.053L528.137,67.335C528.137,70.294 528.237,73.303 528.939,76.062L525.379,76.062Z" style="fill:rgb(110,190,213);fill-rule:nonzero;"/>
            <path d="M549.15,64.026C540.474,64.426 536.061,65.68 536.061,69.041C536.061,72.15 537.114,73.605 541.879,73.605C545.64,73.605 547.495,71.648 549.15,68.338L549.15,64.026ZM549.601,72.501C548.046,75.21 545.439,76.665 541.176,76.665C535.259,76.665 532.399,74.657 532.399,69.041C532.399,63.975 536.361,61.517 549.15,60.966L549.15,60.364C549.15,54.647 546.242,52.892 542.631,52.892C540.123,52.892 537.665,53.443 535.408,54.547L534.206,51.538C536.762,50.184 539.57,49.582 542.631,49.582C548.147,49.582 552.862,52.341 552.862,59.963L552.862,66.683C552.862,69.793 553.063,72.902 553.765,75.661L550.656,76.364C550.203,75.11 549.853,73.805 549.601,72.501Z" style="fill:rgb(110,190,213);fill-rule:nonzero;"/>
            <path d="M568.108,73.504C572.37,73.504 574.98,71.448 574.98,63.123C574.98,56.704 573.876,52.691 568.81,52.691C565.05,52.691 563.194,54.596 561.539,57.906L561.539,72.601C563.495,73.404 565.851,73.504 568.108,73.504ZM557.827,40.554L561.539,40.053L561.539,53.342C562.993,50.835 565.5,49.582 569.413,49.582C575.932,49.582 578.741,54.145 578.741,63.123C578.741,74.055 573.876,76.665 567.958,76.665C564.447,76.665 560.937,76.263 557.827,75.059L557.827,40.554Z" style="fill:rgb(110,190,213);fill-rule:nonzero;"/>
            <path d="M590.675,73.455C594.085,73.455 596.142,72.552 596.142,69.442C596.142,66.583 594.386,66.081 590.425,64.928C586.062,63.725 582,62.371 582,56.603C582,51.738 585.81,49.582 590.476,49.582C593.333,49.582 595.992,49.983 598.35,51.286L597.094,54.196C595.339,53.242 593.133,52.791 590.775,52.791C587.817,52.791 585.611,53.393 585.611,56.804C585.611,59.612 588.167,60.464 591.428,61.368C595.39,62.47 599.753,63.574 599.753,69.041C599.753,74.557 596.342,76.665 590.875,76.665C587.166,76.665 583.905,76.062 581.246,74.407L582.45,71.448C584.808,72.802 587.666,73.455 590.675,73.455Z" style="fill:rgb(110,190,213);fill-rule:nonzero;"/>
            <path d="M23.392,97.148C31.747,102.736 41.789,106 52.596,106C63.402,106 73.445,102.736 81.8,97.148C73.96,92.346 63.554,89.586 52.596,89.586C41.638,89.586 31.232,92.346 23.392,97.148Z" style="fill:rgb(8,148,181);fill-rule:nonzero;"/>
            <path d="M65.211,68.019L62.761,68.019L60.866,60.269L58.804,59.38C58.571,60.249 58.341,61.088 58.116,61.906L57.747,61.906C57.572,62.516 57.396,63.112 57.223,63.672L47.968,63.672C47.794,63.113 47.618,62.516 47.444,61.906L47.075,61.906C46.849,61.088 46.62,60.25 46.387,59.38L44.325,60.269L42.43,68.019L39.98,68.019L39.23,56.08C39.23,56.08 43.332,51.549 44.248,50.284C42.524,41.289 41.971,31.159 46.242,22.136L58.949,22.136C63.22,31.16 62.666,41.289 60.943,50.284C61.858,51.549 65.962,56.08 65.962,56.08L65.211,68.019ZM52.582,12.715C52.723,12.715 56.939,18.319 58.409,21.079L52.611,21.079L52.581,21.079L46.784,21.079C48.254,18.319 52.44,12.715 52.582,12.715ZM105.193,53.404C105.193,24.356 81.644,0.807 52.596,0.807C23.548,0.807 0,24.356 0,53.404C0,70.998 8.647,86.563 21.915,96.112C24.719,94.33 27.853,92.813 31.226,91.583C31.032,90.218 30.856,87.194 32.53,84.73C33.707,82.997 35.549,81.894 38.01,81.448C38.02,81.424 38.029,81.4 38.039,81.375C38.847,79.326 40.486,75.173 46.32,75.832C46.427,71.649 47.151,65.813 47.184,65.547C47.241,65.093 47.656,64.769 48.11,64.828C48.565,64.884 48.888,65.299 48.831,65.753C48.822,65.823 47.966,72.716 47.966,76.795C47.966,77.041 47.856,77.276 47.666,77.433C47.476,77.591 47.226,77.656 46.983,77.61C41.702,76.612 40.477,79.716 39.582,81.984C39.508,82.172 39.439,82.349 39.371,82.511C39.258,82.781 39.012,82.972 38.722,83.014C36.503,83.331 34.881,84.222 33.903,85.662C32.665,87.484 32.694,89.781 32.828,91.024C38.888,89.022 45.637,87.927 52.596,87.927C59.554,87.927 66.302,89.022 72.361,91.023C72.494,89.775 72.52,87.468 71.283,85.654C70.304,84.218 68.685,83.33 66.469,83.014C66.18,82.972 65.933,82.781 65.821,82.511C65.753,82.349 65.683,82.172 65.609,81.984C64.715,79.716 63.49,76.614 58.209,77.61C57.966,77.656 57.716,77.591 57.526,77.433C57.335,77.276 57.225,77.041 57.225,76.795C57.225,72.716 56.37,65.823 56.361,65.753C56.304,65.299 56.627,64.884 57.081,64.828C57.535,64.769 57.951,65.093 58.007,65.547C58.041,65.813 58.765,71.649 58.871,75.832C64.704,75.17 66.344,79.326 67.153,81.375C67.162,81.4 67.172,81.424 67.182,81.448C69.642,81.894 71.485,82.997 72.661,84.73C74.335,87.194 74.159,90.218 73.966,91.583C77.339,92.813 80.473,94.33 83.276,96.112C96.544,86.563 105.193,70.998 105.193,53.404Z" style="fill:rgb(8,148,181);fill-rule:nonzero;"/>
            <path d="M52.596,29.229C51.121,29.257 49.937,30.433 49.937,31.887C49.937,33.339 51.121,34.518 52.596,34.547C54.07,34.518 55.255,33.339 55.255,31.887C55.255,30.433 54.07,29.257 52.596,29.229Z" style="fill:rgb(8,148,181);fill-rule:nonzero;"/>
        </g>
    </g>
</svg>
